<svg xmlns="http://www.w3.org/2000/svg" viewBox="0 0 823 1123"><defs><style>.cls-1{fill:#061e04;}.cls-2{fill:#0d2605;}.cls-3,.cls-4,.cls-6{fill:none;stroke-miterlimit:10;}.cls-3{stroke:#000;}.cls-4,.cls-6{stroke:#fff;}.cls-4{stroke-width:15px;}.cls-5{opacity:0.5;}.cls-6{stroke-width:2px;opacity:0.2;}</style></defs><title>cg</title><g id="Calque_2" data-name="Calque 2"><g id="Calque_212" data-name="Calque 212"><rect class="cls-1" x="35.78" y="36.5" width="750" height="1050"/><path class="cls-2" d="M785.78,36.5V260.4l-750,625.47V36.5Z"/><rect class="cls-3" x="0.5" y="0.5" width="822" height="1122" rx="12" ry="12"/><rect class="cls-3" x="35.89" y="36.5" width="750" height="1050" rx="12" ry="12"/><rect class="cls-4" x="71.89" y="75.81" width="678" height="978" rx="12" ry="12"/><rect class="cls-3" x="71.89" y="75.81" width="678" height="978" rx="12" ry="12"/></g><g id="Calque_306" data-name="Calque 306"><g class="cls-5"><path class="cls-6" d="M714.06,569.09c.46-29.3-36.49-57.05-60.53-65.64-123.3-44-324.52,266.72-292,445.33,6,32.83,24.47,86.55,44.47,85.68,19.62-.85,35-54,39.92-82.41C477,770.88,274.88,460.62,154.87,505.82,132.7,514.17,97.58,540.6,98,569.09c.38,29.34,38.29,53.52,60.4,60.83,125,41.34,321.37-266,289.74-442.84C442.64,156.6,425.7,103.6,406,103.72c-19.54.11-35.93,52.46-41.23,81.73C332.92,361.31,526.3,669.88,652.59,630,675.68,622.76,713.6,598.45,714.06,569.09Z"/><path class="cls-6" d="M713.05,569.08c.65-36.47-30.86-71.63-60.09-65.64-21.4,4.39-39.72,30.46-46.22,66.1l-200,291c-26.39,14.71-43.63,50.41-43.61,88.26,0,41.64,20.91,87.2,44.14,85.68,22.2-1.45,39-45.34,39.63-82.41.66-37.45-15-73.48-40.16-91.53l-200.42-291c-7.09-35.68-26.44-60.89-48.33-63.73-27.55-3.57-56.78,28.6-56.5,63.27.28,35.79,31.94,67,60,60.82,20.12-4.42,37.36-27.88,44.88-60.36L407.84,260.62C431.18,250,447.55,220.31,449,187.08c1.8-40-18-83.69-41.78-83.36C384,104,365,146.43,366.35,185.44c1.15,34,17.71,64.62,41.48,75.18l198.9,308.92c7.71,32.5,25,55.94,45.3,60.49C680.44,636.41,712.41,605.13,713.05,569.08Z"/></g></g></g></svg>