<?xml version="1.0" encoding="utf-8"?>
<!-- Generator: Adobe Illustrator 21.0.2, SVG Export Plug-In . SVG Version: 6.00 Build 0)  -->
<svg version="1.1" id="Calque_1" xmlns="http://www.w3.org/2000/svg" xmlns:xlink="http://www.w3.org/1999/xlink" x="0px" y="0px"
	 viewBox="0 0 208 207" style="enable-background:new 0 0 208 207;" xml:space="preserve">
<style type="text/css">
	.st0{fill:#FFFFFF;}
</style>
<title>Fichier 4</title>
<image style="overflow:visible;opacity:0.65;enable-background:new    ;" width="208" height="207" xlink:href="3C3FC845C1375BA.png" >
</image>
<path class="st0" d="M183.3,121.1h-53.1V71c0-1.6-1.3-2.9-2.9-2.9h-14.7v-2.9c0-0.8-0.3-1.5-0.9-2.1l-5-5v-6.4l1.6-1.6
	c13.1-4.2,22-16.3,22-30v-2.1c0-1.6-1.3-2.9-2.9-2.9h-6c0-0.7,0.1-1.3,0.1-1.9v-1c0-1.7-1.3-3-3-3H77.1c-1.7,0-3,1.3-3,3v1
	c0,0.7,0.1,1.3,0.1,1.9h-6c-1.6,0-3,1.3-3,2.9V20c0,13.7,8.9,25.8,22,30l1.6,1.6V58l-5,5c-0.5,0.6-0.9,1.3-0.9,2.1v3H68.3
	c-1.6,0-3,1.3-3,2.9v50.1H12.2c-1.7,0-3,1.3-3,3v59c0,1.6,1.4,3,3,3h171.1c1.6,0,2.9-1.3,3-3v-59
	C186.2,122.5,184.9,121.2,183.3,121.1z M65.3,180.1H15.2V127h50.2L65.3,180.1z M120.6,20.8h3.7c-0.3,9.6-6,18.2-14.8,22.3v-0.5
	C115.3,36.5,119.2,29,120.6,20.8z M86,43.1C77.3,39,71.6,30.4,71.2,20.8h3.7C76.4,29,80.3,36.5,86,42.6V43.1z M80.1,14.9h35.3
	c-0.4,8.8-4,17.2-10,23.6H90.2C84.2,32.1,80.6,23.7,80.1,14.9L80.1,14.9z M94,48.2l-2.1-2.1v-1.7h11.8v1.7l-2.1,2.1
	c-0.5,0.6-0.9,1.3-0.9,2.1v5.9h-5.9v-5.9C94.9,49.5,94.6,48.8,94,48.2z M89,66.3l4.2-4.2h9.4l4.2,4.2V68H89V66.3z M124.4,180.1H71.3
	V73.9h53.1V180.1z M180.4,180.1h-50.2V127h50.2L180.4,180.1z"/>
</svg>
