<?xml version="1.0" encoding="utf-8"?>
<!-- Generator: Adobe Illustrator 21.0.2, SVG Export Plug-In . SVG Version: 6.00 Build 0)  -->
<svg version="1.1" id="Calque_1" xmlns="http://www.w3.org/2000/svg" xmlns:xlink="http://www.w3.org/1999/xlink" x="0px" y="0px"
	 viewBox="0 0 222 224" style="enable-background:new 0 0 222 224;" xml:space="preserve">
<style type="text/css">
	.st0{fill:#FFFFFF;}
</style>
<title>d</title>
<image style="overflow:visible;opacity:0.65;enable-background:new    ;" width="222" height="224" xlink:href="9A051AED042D919B.png" >
</image>
<path class="st0" d="M137.7,32.3c-0.5,0-1-0.1-1.4-0.3c-0.2-0.1-0.4-0.2-0.6-0.3c-0.2-0.1-0.4-0.3-0.6-0.5c-0.7-0.7-1.1-1.7-1.1-2.7
	c0-0.5,0.1-1,0.3-1.4c0.1-0.2,0.2-0.4,0.4-0.7c0.1-0.2,0.3-0.4,0.5-0.6c0.2-0.2,0.4-0.3,0.6-0.5c0.2-0.1,0.4-0.3,0.6-0.3
	c0.2-0.1,0.5-0.2,0.7-0.2c0.5-0.1,1-0.1,1.5,0c0.2,0,0.5,0.1,0.7,0.2c0.2,0.1,0.4,0.2,0.6,0.3c0.2,0.1,0.4,0.3,0.6,0.5
	c0.2,0.2,0.3,0.4,0.5,0.6c0.4,0.6,0.6,1.4,0.6,2.1c0,0.2,0,0.5-0.1,0.7c-0.1,0.2-0.1,0.5-0.2,0.7c-0.1,0.2-0.2,0.4-0.4,0.7
	c-0.1,0.2-0.3,0.4-0.5,0.6c-0.2,0.2-0.4,0.3-0.6,0.5c-0.2,0.1-0.4,0.3-0.6,0.3C138.7,32.2,138.2,32.3,137.7,32.3z"/>
<path class="st0" d="M58.4,186.8c-16.8,0-30.4-13.6-30.4-30.4s13.6-30.4,30.4-30.4s30.4,13.6,30.4,30.4l0,0
	C88.8,173.2,75.2,186.8,58.4,186.8z M58.4,133.5c-12.6,0-22.9,10.2-22.9,22.9s10.2,22.9,22.9,22.9s22.9-10.2,22.9-22.9l0,0
	C81.2,143.7,71,133.5,58.4,133.5L58.4,133.5z"/>
<path class="st0" d="M69.5,164.2c-2.1,0-3.8-1.7-3.8-3.8c0-1,0.4-2,1.1-2.7l1.3-1.3l-1.3-1.3c-1.4-1.6-1.2-4,0.3-5.4
	c1.4-1.3,3.6-1.3,5,0l4,4c1.5,1.5,1.5,3.9,0,5.4l-4,4C71.5,163.8,70.5,164.2,69.5,164.2z"/>
<path class="st0" d="M47.2,164.1c-1,0-2-0.4-2.7-1.1l-4-4c-1.5-1.5-1.5-3.9,0-5.4l4-4c1.5-1.5,3.9-1.5,5.4,0s1.5,3.9,0,5.4l0,0
	l-1.3,1.3l1.3,1.3c1.5,1.5,1.5,3.9,0,5.4C49.2,163.7,48.2,164.1,47.2,164.1L47.2,164.1z"/>
<path class="st0" d="M58.4,175.3c-1,0-2-0.4-2.7-1.1l-4-4c-1.6-1.4-1.7-3.8-0.3-5.4s3.8-1.7,5.4-0.3c0.1,0.1,0.2,0.2,0.3,0.3
	l1.3,1.3l1.3-1.3c1.4-1.6,3.8-1.7,5.4-0.3s1.7,3.8,0.3,5.4c-0.1,0.1-0.2,0.2-0.3,0.3l-4,4C60.3,174.9,59.3,175.3,58.4,175.3z"/>
<path class="st0" d="M62.4,149c-1,0-2-0.4-2.7-1.1l-1.3-1.3l-1.3,1.3c-1.4,1.6-3.8,1.7-5.4,0.3s-1.7-3.8-0.3-5.4
	c0.1-0.1,0.2-0.2,0.3-0.3l4-4c1.5-1.5,3.9-1.5,5.3,0c0,0,0,0,0,0l4,4c1.5,1.5,1.5,3.9,0,5.3C64.4,148.6,63.4,149,62.4,149L62.4,149z
	"/>
<path class="st0" d="M189.2,9.1H21.4C15,9.1,9.8,14.3,9.8,20.8v121.7c0,4.6,1.7,7.4,3.5,9c-2.7,25.6,15.8,48.5,41.4,51.2
	c1.6,0.2,3.3,0.3,4.9,0.3c10.2,0,20-3.3,28.1-9.5c7.1-5.4,12.5-12.8,15.6-21.2h4c3.1,8.4,8.5,15.8,15.7,21.2
	c8.1,6.2,18,9.5,28.1,9.5c25.7,0,46.5-20.9,46.5-46.6c0-1.6-0.1-3.3-0.3-4.9c1.8-1.6,3.5-4.3,3.5-9V20.8
	C200.9,14.3,195.7,9.1,189.2,9.1z M151.1,195.3c-17.3-0.1-32.4-11.4-37.4-27.9c-0.5-1.6-2-2.7-3.6-2.7h-9.5c-1.7,0-3.2,1.1-3.6,2.7
	c-6.1,20.7-27.8,32.5-48.4,26.4c-20.7-6.1-32.5-27.8-26.4-48.4c4.9-16.6,20.1-28,37.5-28h91.5c21.5,0.9,38.2,19.1,37.3,40.6
	C187.6,178.2,171.3,194.5,151.1,195.3L151.1,195.3z M185.3,124.8V28.5c0-2.1-1.7-3.8-3.8-3.8h-22.1c-2.1,0-3.8,1.7-3.8,3.8
	c0,2.1,1.7,3.8,3.8,3.8h18.3v85.9c-7.8-5.5-17.1-8.4-26.6-8.4H59.6c-9.5,0-18.8,2.9-26.6,8.4V32.3h86c2.1,0,3.8-1.7,3.8-3.8
	c0-2.1-1.7-3.8-3.8-3.8H29.2c-2.1,0-3.8,1.7-3.8,3.8v96.3c-3.3,3.6-6,7.6-8.1,12v-116c0-2.3,1.8-4.1,4.1-4.1h167.8
	c2.3,0,4.1,1.8,4.1,4.1v116C191.3,132.4,188.5,128.4,185.3,124.8L185.3,124.8z"/>
<path class="st0" d="M171.4,156.1c4.9-5.1,4.8-13.2-0.3-18.1c-5-4.8-12.9-4.8-17.8,0c-5.1-4.9-13.2-4.8-18.1,0.3
	c-4.8,5-4.8,12.9,0,17.8l0.2,0.2l-0.2,0.2c-4.9,5.1-4.8,13.2,0.3,18.1c5,4.8,12.9,4.8,17.8,0c5.1,4.9,13.2,4.8,18.1-0.3
	c4.8-5,4.8-12.9,0-17.8l-0.2-0.2L171.4,156.1z M158.6,143.4c2-2,5.4-2,7.4,0c2,2,2,5.4,0,7.4c-2,2-5.4,2-7.4,0
	C156.6,148.7,156.6,145.4,158.6,143.4C158.6,143.4,158.6,143.4,158.6,143.4z M140.6,143.4c2-2,5.4-2,7.4,0c2,2,2,5.4,0,7.4
	c-2,2-5.4,2-7.4,0C138.5,148.7,138.5,145.4,140.6,143.4z M148,169.3c-2,2-5.4,2-7.4,0c-2-2-2-5.4,0-7.4c2-2,5.4-2,7.4,0
	c1,1,1.5,2.3,1.5,3.7C149.5,167,149,168.3,148,169.3L148,169.3z M166,169.3c-2,2-5.4,2-7.4,0c-2-2-2-5.4,0-7.4c2-2,5.4-2,7.4,0
	C168.1,163.9,168.1,167.2,166,169.3C166,169.3,166,169.3,166,169.3L166,169.3z"/>
<path class="st0" d="M95,103.7c-5.2,0-9.3-4.2-9.4-9.4V59.9c0-5.2,4.2-9.3,9.4-9.3c1.6,0,3.2,0.4,4.6,1.2L129.5,69
	c4.5,2.6,6,8.3,3.4,12.8c-0.8,1.4-2,2.6-3.4,3.4l-29.8,17.2C98.2,103.2,96.6,103.7,95,103.7z M95,58.1c-0.3,0-0.6,0.1-0.9,0.2
	c-0.6,0.3-0.9,0.9-0.9,1.6v34.4c0,1,0.8,1.8,1.8,1.8c0.3,0,0.6-0.1,0.9-0.2l29.8-17.2c0.9-0.5,1.1-1.6,0.7-2.4
	c-0.2-0.3-0.4-0.5-0.7-0.7L95.9,58.3C95.6,58.2,95.3,58.1,95,58.1z"/>
</svg>
