<?xml version="1.0" encoding="utf-8"?>
<!-- Generator: Adobe Illustrator 21.0.2, SVG Export Plug-In . SVG Version: 6.00 Build 0)  -->
<svg version="1.1" id="Calque_1" xmlns="http://www.w3.org/2000/svg" xmlns:xlink="http://www.w3.org/1999/xlink" x="0px" y="0px"
	 viewBox="0 0 100 62.7" style="enable-background:new 0 0 100 62.7;" xml:space="preserve">
<style type="text/css">
	.st0{fill:#FFFFFF;}
</style>
<title>Line/Game 2</title>
<desc>Created with Sketch.</desc>
<g>
	<rect x="74" y="43.4" class="st0" width="4" height="4"/>
	<rect x="66" y="35.4" class="st0" width="4" height="4"/>
	<polygon class="st0" points="26,27.4 22,27.4 22,35.4 14,35.4 14,39.4 22,39.4 22,47.4 26,47.4 26,39.4 34,39.4 34,35.4 26,35.4 	
		"/>
	<rect x="82" y="35.4" class="st0" width="4" height="4"/>
	<path class="st0" d="M97.2,31.4c-2.8-9.6-11.2-16-21.2-16H38v-10c0-1.2-0.8-2-2-2s-2,0.8-2,2v10H24c-12,0-22,10-22,22s10,22,22,22
		c10,0,18.4-6.4,21.2-16h9.6C58,55,70.4,61.8,82,58.6C93.6,55.4,100.4,43,97.2,31.4z M76,55.4c-8,0-14.8-5.2-17.2-12.8
		c-0.4-2-2-3.2-4-3.2h-9.6c-2,0-3.6,1.2-4,3.2c-2.8,9.6-12.8,14.8-22.4,12C9.2,51.8,4,41.8,6.8,32.2C9.2,24.6,16,19.4,24,19.4h52
		c10,0,18,8,18,18S86,55.4,76,55.4z"/>
	<rect x="74" y="27.4" class="st0" width="4" height="4"/>
</g>
</svg>
