<?xml version="1.0" encoding="utf-8"?>
<!-- Generator: Adobe Illustrator 21.0.2, SVG Export Plug-In . SVG Version: 6.00 Build 0)  -->
<svg version="1.1" id="Calque_1" xmlns="http://www.w3.org/2000/svg" xmlns:xlink="http://www.w3.org/1999/xlink" x="0px" y="0px"
	 viewBox="0 0 233 216" style="enable-background:new 0 0 233 216;" xml:space="preserve">
<style type="text/css">
	.st0{fill:#FFFFFF;}
</style>
<title>bouton3</title>
<image style="overflow:visible;opacity:0.65;enable-background:new    ;" width="233" height="216" xlink:href="C9D88772E189C9AF.png" >
</image>
<path class="st0" d="M87.8,133.1v-13.7c0-1.9-1.5-3.4-3.4-3.4H74.1v6.9H81v6.9H67.3v-20.6h20.5v-6.8h-24c-1.9,0-3.4,1.5-3.4,3.4
	v27.4c0,1.9,1.5,3.4,3.4,3.4h20.5C86.3,136.6,87.8,135,87.8,133.1C87.8,133.1,87.8,133.1,87.8,133.1z"/>
<path class="st0" d="M98.1,136.5h13.7c5.7,0,10.3-4.6,10.3-10.3v-13.7c0-5.7-4.6-10.3-10.3-10.3H98.1c-1.9,0-3.4,1.5-3.4,3.4v27.4
	C94.7,135,96.2,136.5,98.1,136.5z M101.5,109.1h10.3c1.9,0,3.4,1.5,3.4,3.4v13.7c0,1.9-1.5,3.4-3.4,3.4h-10.3L101.5,109.1z"/>
<path class="st0" d="M135.8,129.7H146c5.7,0,10.3-4.6,10.3-10.3v-6.8c0-5.7-4.6-10.3-10.3-10.3h-13.6c-1.9,0-3.4,1.5-3.4,3.4v30.8
	h6.9L135.8,129.7z M135.8,109.2H146c1.9,0,3.5,1.6,3.5,3.5v6.7c0,1.9-1.6,3.5-3.5,3.5h-10.2V109.2z"/>
<path class="st0" d="M180.3,102.3h-13.7c-1.9,0-3.4,1.5-3.4,3.4c0,0,0,0,0,0v30.8h6.8v-13.7h10.2c1.9,0,3.5,1.6,3.5,3.5v10.2h6.9
	v-10.2c0-2.6-0.9-5-2.6-6.9c3.8-4.2,3.5-10.7-0.7-14.5C185.3,103.2,182.8,102.3,180.3,102.3L180.3,102.3z M180.3,116H170v-6.9h10.3
	c1.9,0,3.4,1.5,3.4,3.4S182.2,116,180.3,116L180.3,116z"/>
<path class="st0" d="M12.5,177.6h27.4v13.7c0,1.9,1.5,3.4,3.4,3.4c0,0,0,0,0,0h147.1c11.4,0,20.6-9.2,20.6-20.6V30.4
	c0-11.3-9.2-20.5-20.5-20.5h-178c-1.9,0-3.4,1.5-3.4,3.4v160.9C9.1,176.1,10.6,177.6,12.5,177.6z M204.2,174.1
	c0,7.6-6.2,13.8-13.8,13.8H46.8V50.9h65.1v17.1H80.5c-1.6,0-2.9,1.1-3.3,2.6c-0.9,3.6-3.7,6.4-7.3,7.3c-1.5,0.4-2.6,1.7-2.6,3.3
	v14.2h6.9V83.7c3.9-1.7,7.1-4.9,8.8-8.8h28.9v13.7c0,1.9,1.5,3.4,3.4,3.4c0.9,0,1.8-0.4,2.4-1l11.3-11.3L140.2,91
	c0.6,0.6,1.5,1,2.4,1c1.9,0,3.4-1.5,3.4-3.4V74.9h22c1.7,3.9,4.9,7.1,8.8,8.8v11.8h6.9V81.3c0-1.6-1.1-2.9-2.6-3.3
	c-3.6-0.9-6.4-3.7-7.3-7.3c-0.4-1.5-1.7-2.6-3.3-2.6H146V50.9h44.5c5.1,0,9.9-1.9,13.7-5.3L204.2,174.1z M115.2,33.8h13.9
	c5.5,0,10,4.5,10,10v36.5l-7.9-7.9c-1.3-1.3-3.5-1.3-4.8,0c0,0,0,0,0,0l-7.9,7.9V44C118.6,40.3,117.5,36.8,115.2,33.8L115.2,33.8z
	 M15.9,16.7h174.6c7.6,0.2,13.5,6.5,13.3,14.1c-0.2,7.3-6,13.1-13.3,13.3H146v-0.3c0-9.3-7.5-16.8-16.8-16.8H98.1
	c-1.9,0-3.4,1.5-3.4,3.4c0,1.9,1.5,3.4,3.4,3.4h3.5c5.6,0,10.1,4.5,10.2,10.2v0.1H43.3c-1.9,0-3.4,1.5-3.4,3.4l0,0v106.1h-6.9V98.9
	h-6.8v58.2c0,1.9,1.5,3.4,3.4,3.4h10.3v10.3h-24L15.9,16.7z"/>
<path class="st0" d="M176.9,155.1c-3.9,1.7-7.1,4.9-8.8,8.8H82.9c-1.7-3.9-4.9-7.1-8.8-8.8v-11.8h-6.8v14.2c0,1.6,1.1,2.9,2.6,3.3
	c3.6,0.9,6.4,3.7,7.3,7.3c0.4,1.5,1.7,2.6,3.3,2.6h90c1.6,0,2.9-1.1,3.3-2.6c0.9-3.6,3.7-6.4,7.3-7.3c1.5-0.4,2.6-1.7,2.6-3.3v-14.2
	h-6.9L176.9,155.1z"/>
<path class="st0" d="M152.9,27h37.7v6.8h-37.7V27z"/>
<path class="st0" d="M33.1,33.8H81V27H29.6c-1.9,0-3.4,1.5-3.4,3.4V92h6.9L33.1,33.8z"/>
</svg>
